REM DIRINDEX 1\2,1\3,1\4,1\5
REM DIRNAME folder01,folder02,folder03,folder04,folder05
TITLE ""
FILE "CD2Track08.mp3" MP3
  TRACK 01 AUDIO
    TITLE "5:cjc156_2534"
    INDEX 01 00:00:00
  TRACK 02 AUDIO
    TITLE "0:"
    INDEX 01 00:01:44
  TRACK 03 AUDIO
    TITLE "2:cjc156_2535"
    INDEX 01 00:02:49
  TRACK 04 AUDIO
    TITLE "3:cjc156_2536"
    INDEX 01 00:04:38
  TRACK 05 AUDIO
    TITLE "2:cjc156_2537"
    INDEX 01 00:06:30
  TRACK 06 AUDIO
    TITLE "3:cjc156_2538"
    INDEX 01 00:08:70
  TRACK 07 AUDIO
    TITLE "2:cjc156_2539"
    INDEX 01 00:11:40
  TRACK 08 AUDIO
    TITLE "3:cjc156_2540"
    INDEX 01 00:13:32
  TRACK 09 AUDIO
    TITLE "2:cjc156_2541"
    INDEX 01 00:15:25
  TRACK 10 AUDIO
    TITLE "3:cjc156_2542"
    INDEX 01 00:17:08
  TRACK 11 AUDIO
    TITLE "2:cjc156_2543"
    INDEX 01 00:18:74
  TRACK 12 AUDIO
    TITLE "3:cjc156_2544"
    INDEX 01 00:21:17
  TRACK 13 AUDIO
    TITLE "2:cjc156_2545"
    INDEX 01 00:23:42
  TRACK 14 AUDIO
    TITLE "3:cjc156_2546"
    INDEX 01 00:25:45
  TRACK 15 AUDIO
    TITLE "2:cjc156_2547"
    INDEX 01 00:27:53
  TRACK 16 AUDIO
    TITLE "3:cjc156_2548"
    INDEX 01 00:29:58
  TRACK 17 AUDIO
    TITLE "2:cjc156_2549"
    INDEX 01 00:31:71
  TRACK 18 AUDIO
    TITLE "3:cjc156_2550"
    INDEX 01 00:33:22
  TRACK 19 AUDIO
    TITLE "2:cjc156_2551"
    INDEX 01 00:34:57
  TRACK 20 AUDIO
    TITLE "3:cjc156_2552"
    INDEX 01 00:37:34
  TRACK 21 AUDIO
    TITLE "2:cjc156_2553"
    INDEX 01 00:40:19
  TRACK 22 AUDIO
    TITLE "3:cjc156_2554"
    INDEX 01 00:42:19
  TRACK 23 AUDIO
    TITLE "2:cjc156_2555"
    INDEX 01 00:44:26
  TRACK 24 AUDIO
    TITLE "3:cjc156_2556"
    INDEX 01 00:46:49
  TRACK 25 AUDIO
    TITLE "2:cjc156_2557"
    INDEX 01 00:49:04
  TRACK 26 AUDIO
    TITLE "3:cjc156_2558"
    INDEX 01 00:50:68
  TRACK 27 AUDIO
    TITLE "2:cjc156_2559"
    INDEX 01 00:52:67
  TRACK 28 AUDIO
    TITLE "3:cjc156_2560"
    INDEX 01 00:55:20
  TRACK 29 AUDIO
    TITLE "2:cjc156_2561"
    INDEX 01 00:57:50
  TRACK 30 AUDIO
    TITLE "3:cjc156_2562"
    INDEX 01 01:00:15
  TRACK 31 AUDIO
    TITLE "2:cjc156_2563"
    INDEX 01 01:02:63
  TRACK 32 AUDIO
    TITLE "3:cjc156_2564"
    INDEX 01 01:04:64
  TRACK 33 AUDIO
    TITLE "2:cjc156_2565"
    INDEX 01 01:06:67
  TRACK 34 AUDIO
    TITLE "3:cjc156_2566"
    INDEX 01 01:08:46
  TRACK 35 AUDIO
    TITLE "2:cjc156_2567"
    INDEX 01 01:10:33
  TRACK 36 AUDIO
    TITLE "3:cjc156_2568"
    INDEX 01 01:12:54
  TRACK 37 AUDIO
    TITLE "2:cjc156_2569"
    INDEX 01 01:15:09
  TRACK 38 AUDIO
    TITLE "3:cjc156_2570"
    INDEX 01 01:16:71
  TRACK 39 AUDIO
    TITLE "2:cjc156_2571"
    INDEX 01 01:18:68
  TRACK 40 AUDIO
    TITLE "3:cjc156_2572"
    INDEX 01 01:21:14
  TRACK 41 AUDIO
    TITLE "2:cjc156_2573"
    INDEX 01 01:23:40
  TRACK 42 AUDIO
    TITLE "3:cjc156_2574"
    INDEX 01 01:25:39
  TRACK 43 AUDIO
    TITLE "2:cjc156_2575"
    INDEX 01 01:27:40
  TRACK 44 AUDIO
    TITLE "3:cjc156_2576"
    INDEX 01 01:29:74
  TRACK 45 AUDIO
    TITLE "2:cjc156_2577"
    INDEX 01 01:32:39
  TRACK 46 AUDIO
    TITLE "3:cjc156_2578"
    INDEX 01 01:34:65
  TRACK 47 AUDIO
    TITLE "2:cjc156_2579"
    INDEX 01 01:37:22
  TRACK 48 AUDIO
    TITLE "3:cjc156_2580"
    INDEX 01 01:38:53
  TRACK 49 AUDIO
    TITLE "2:cjc156_2581"
    INDEX 01 01:40:15
  TRACK 50 AUDIO
    TITLE "3:cjc156_2582"
    INDEX 01 01:42:10
  TRACK 51 AUDIO
    TITLE "2:cjc156_2583"
    INDEX 01 01:44:07
  TRACK 52 AUDIO
    TITLE "3:cjc156_2584"
    INDEX 01 01:49:02
  TRACK 53 AUDIO
    TITLE "2:cjc156_2585"
    INDEX 01 01:54:03
  TRACK 54 AUDIO
    TITLE "3:cjc156_2586"
    INDEX 01 01:55:36
  TRACK 55 AUDIO
    TITLE "2:cjc156_2587"
    INDEX 01 01:57:04
  TRACK 56 AUDIO
    TITLE "3:cjc156_2588"
    INDEX 01 01:59:38
  TRACK 57 AUDIO
    TITLE "2:cjc156_2589"
    INDEX 01 02:02:05
  TRACK 58 AUDIO
    TITLE "3:cjc156_2590"
    INDEX 01 02:03:34
  TRACK 59 AUDIO
    TITLE "2:cjc156_2591"
    INDEX 01 02:04:68
  TRACK 60 AUDIO
    TITLE "3:cjc156_2592"
    INDEX 01 02:07:45
  TRACK 61 AUDIO
    TITLE "2:cjc156_2593"
    INDEX 01 02:10:28
  TRACK 62 AUDIO
    TITLE "3:cjc156_2594"
    INDEX 01 02:11:35
  TRACK 63 AUDIO
    TITLE "2:cjc156_2595"
    INDEX 01 02:12:52
  TRACK 64 AUDIO
    TITLE "3:cjc156_2596"
    INDEX 01 02:13:57
  TRACK 65 AUDIO
    TITLE "2:cjc156_2597"
    INDEX 01 02:14:67
  TRACK 66 AUDIO
    TITLE "3:cjc156_2598"
    INDEX 01 02:16:36
  TRACK 67 AUDIO
    TITLE "2:cjc156_2599"
    INDEX 01 02:18:16
  TRACK 68 AUDIO
    TITLE "3:cjc156_2600"
    INDEX 01 02:21:63
  TRACK 69 AUDIO
    TITLE "2:cjc156_2601"
    INDEX 01 02:25:47
  TRACK 70 AUDIO
    TITLE "3:cjc156_2602"
    INDEX 01 02:27:60
  TRACK 71 AUDIO
    TITLE "2:cjc156_2603"
    INDEX 01 02:30:03
  TRACK 72 AUDIO
    TITLE "3:cjc156_2604"
    INDEX 01 02:31:12
  TRACK 73 AUDIO
    TITLE "2:cjc156_2605"
    INDEX 01 02:32:27
  TRACK 74 AUDIO
    TITLE "3:cjc156_2606"
    INDEX 01 02:34:01
  TRACK 75 AUDIO
    TITLE "2:cjc156_2607"
    INDEX 01 02:35:55
  TRACK 76 AUDIO
    TITLE "3:cjc156_2608"
    INDEX 01 02:38:28
  TRACK 77 AUDIO
    TITLE "2:cjc156_2609"
    INDEX 01 02:41:05
  TRACK 78 AUDIO
    TITLE "3:cjc156_2610"
    INDEX 01 02:43:17
  TRACK 79 AUDIO
    TITLE "2:cjc156_2611"
    INDEX 01 02:45:36
  TRACK 80 AUDIO
    TITLE "3:cjc156_2612"
    INDEX 01 02:47:07
  TRACK 81 AUDIO
    TITLE "2:cjc156_2613"
    INDEX 01 02:48:62
  TRACK 82 AUDIO
    TITLE "3:cjc156_2614"
    INDEX 01 02:51:42
  TRACK 83 AUDIO
    TITLE "2:cjc156_2615"
    INDEX 01 02:54:27
  TRACK 84 AUDIO
    TITLE "3:cjc156_2616"
    INDEX 01 02:57:04
  TRACK 85 AUDIO
    TITLE "2:cjc156_2617"
    INDEX 01 02:59:67
  TRACK 86 AUDIO
    TITLE "3:cjc156_2618"
    INDEX 01 03:03:04
  TRACK 87 AUDIO
    TITLE "2:cjc156_2619"
    INDEX 01 03:06:17
  TRACK 88 AUDIO
    TITLE "3:cjc156_2620"
    INDEX 01 03:09:31
  TRACK 89 AUDIO
    TITLE "2:cjc156_2621"
    INDEX 01 03:12:47
  TRACK 90 AUDIO
    TITLE "3:cjc156_2622"
    INDEX 01 03:14:00
  TRACK 91 AUDIO
    TITLE "2:cjc156_2623"
    INDEX 01 03:15:41
  TRACK 92 AUDIO
    TITLE "3:cjc156_2624"
    INDEX 01 03:17:09
  TRACK 93 AUDIO
    TITLE "2:cjc156_2625"
    INDEX 01 03:18:55
  TRACK 94 AUDIO
    TITLE "3:cjc156_2626"
    INDEX 01 03:20:23
  TRACK 95 AUDIO
    TITLE "2:cjc156_2627"
    INDEX 01 03:21:69
  TRACK 96 AUDIO
    TITLE "3:cjc156_2628"
    INDEX 01 03:24:11
  TRACK 97 AUDIO
    TITLE "2:cjc156_2629"
    INDEX 01 03:26:29
  TRACK 98 AUDIO
    TITLE "3:cjc156_2630"
    INDEX 01 03:28:02
  TRACK 99 AUDIO
    TITLE "2:cjc156_2631"
    INDEX 01 03:29:59
  TRACK 100 AUDIO
    TITLE "3:cjc156_2632"
    INDEX 01 03:31:15
  TRACK 101 AUDIO
    TITLE "2:cjc156_2633"
    INDEX 01 03:32:51
  TRACK 102 AUDIO
    TITLE "3:cjc156_2634"
    INDEX 01 03:34:42
  TRACK 103 AUDIO
    TITLE "2:cjc156_2635"
    INDEX 01 03:36:43
  TRACK 104 AUDIO
    TITLE "3:cjc156_2636"
    INDEX 01 03:39:22
  TRACK 105 AUDIO
    TITLE "2:cjc156_2637"
    INDEX 01 03:42:05
  TRACK 106 AUDIO
    TITLE "3:cjc156_2638"
    INDEX 01 03:44:27
  TRACK 107 AUDIO
    TITLE "2:cjc156_2639"
    INDEX 01 03:46:57
  TRACK 108 AUDIO
    TITLE "3:cjc156_2640"
    INDEX 01 03:48:42
  TRACK 109 AUDIO
    TITLE "2:cjc156_2641"
    INDEX 01 03:50:41
  TRACK 110 AUDIO
    TITLE "3:cjc156_2642"
    INDEX 01 03:52:72
  TRACK 111 AUDIO
    TITLE "2:cjc156_2643"
    INDEX 01 03:55:37
  TRACK 112 AUDIO
    TITLE "3:cjc156_2644"
    INDEX 01 03:57:51
  TRACK 113 AUDIO
    TITLE "2:cjc156_2645"
    INDEX 01 04:00:02
  TRACK 114 AUDIO
    TITLE "3:cjc156_2646"
    INDEX 01 04:02:15
  TRACK 115 AUDIO
    TITLE "2:cjc156_2647"
    INDEX 01 04:04:36
  TRACK 116 AUDIO
    TITLE "3:cjc156_2648"
    INDEX 01 04:05:55
  TRACK 117 AUDIO
    TITLE "2:cjc156_2649"
    INDEX 01 04:07:10
  TRACK 118 AUDIO
    TITLE "3:cjc156_2650"
    INDEX 01 04:09:29
  TRACK 119 AUDIO
    TITLE "2:cjc156_2651"
    INDEX 01 04:11:57
  TRACK 120 AUDIO
    TITLE "3:cjc156_2652"
    INDEX 01 04:13:44
  TRACK 121 AUDIO
    TITLE "2:cjc156_2653"
    INDEX 01 04:15:35
  TRACK 122 AUDIO
    TITLE "3:cjc156_2654"
    INDEX 01 04:18:71
  TRACK 123 AUDIO
    TITLE "2:cjc156_2655"
    INDEX 01 04:22:41
  TRACK 124 AUDIO
    TITLE "3:cjc156_2656"
    INDEX 01 04:24:38
  TRACK 125 AUDIO
    TITLE "2:cjc156_2657"
    INDEX 01 04:26:43
  TRACK 126 AUDIO
    TITLE "3:cjc156_2658"
    INDEX 01 04:27:50
  TRACK 127 AUDIO
    TITLE "2:cjc156_2659"
    INDEX 01 04:28:63
  TRACK 128 AUDIO
    TITLE "3:cjc156_2660"
    INDEX 01 04:30:11
  TRACK 129 AUDIO
    TITLE "2:cjc156_2661"
    INDEX 01 04:31:38
  TRACK 130 AUDIO
    TITLE "3:cjc156_2662"
    INDEX 01 04:33:06
  TRACK 131 AUDIO
    TITLE "2:cjc156_2663"
    INDEX 01 04:34:52
  TRACK 132 AUDIO
    TITLE "3:cjc156_2664"
    INDEX 01 04:36:14
  TRACK 133 AUDIO
    TITLE "2:cjc156_2665"
    INDEX 01 04:37:57
  TRACK 134 AUDIO
    TITLE "3:cjc156_2666"
    INDEX 01 04:40:20
  TRACK 135 AUDIO
    TITLE "2:cjc156_2667"
    INDEX 01 04:42:56
  TRACK 136 AUDIO
    TITLE "3:cjc156_2668"
    INDEX 01 04:46:05
  TRACK 137 AUDIO
    TITLE "2:cjc156_2669"
    INDEX 01 04:49:34
  TRACK 138 AUDIO
    TITLE "3:cjc156_2670"
    INDEX 01 04:51:74
  TRACK 139 AUDIO
    TITLE "2:cjc156_2671"
    INDEX 01 04:54:45
  TRACK 140 AUDIO
    TITLE "3:cjc156_2672"
    INDEX 01 04:56:09
  TRACK 141 AUDIO
    TITLE "2:cjc156_2673"
    INDEX 01 04:57:51
  TRACK 142 AUDIO
    TITLE "3:cjc156_2674"
    INDEX 01 05:00:60
  TRACK 143 AUDIO
    TITLE "2:cjc156_2675"
    INDEX 01 05:03:70
  TRACK 144 AUDIO
    TITLE "3:cjc156_2676"
    INDEX 01 05:05:74
  TRACK 145 AUDIO
    TITLE "2:cjc156_2677"
    INDEX 01 05:08:16
  TRACK 146 AUDIO
    TITLE "3:cjc156_2678"
    INDEX 01 05:10:64
  TRACK 147 AUDIO
    TITLE "2:cjc156_2679"
    INDEX 01 05:13:46
  TRACK 148 AUDIO
    TITLE "3:cjc156_2680"
    INDEX 01 05:16:68
  TRACK 149 AUDIO
    TITLE "2:cjc156_2681"
    INDEX 01 05:20:23
  TRACK 150 AUDIO
    TITLE "3:cjc156_2682"
    INDEX 01 05:23:00
  TRACK 151 AUDIO
    TITLE "2:cjc156_2683"
    INDEX 01 05:25:63
  TRACK 152 AUDIO
    TITLE "3:cjc156_2684"
    INDEX 01 05:28:44
  TRACK 153 AUDIO
    TITLE "2:cjc156_2685"
    INDEX 01 05:31:37
  TRACK 154 AUDIO
    TITLE "3:cjc156_2686"
    INDEX 01 05:32:71
  TRACK 155 AUDIO
    TITLE "2:cjc156_2687"
    INDEX 01 05:34:39
  TRACK 156 AUDIO
    TITLE "3:cjc156_2688"
    INDEX 01 05:38:66
  TRACK 157 AUDIO
    TITLE "2:cjc156_2689"
    INDEX 01 05:43:20
  TRACK 158 AUDIO
    TITLE "3:cjc156_2690"
    INDEX 01 05:44:69
  TRACK 159 AUDIO
    TITLE "2:cjc156_2691"
    INDEX 01 05:46:46
  TRACK 160 AUDIO
    TITLE "3:cjc156_2692"
    INDEX 01 05:48:33
  TRACK 161 AUDIO
    TITLE "2:cjc156_2693"
    INDEX 01 05:50:24
  TRACK 162 AUDIO
    TITLE "3:cjc156_2694"
    INDEX 01 05:51:59
  TRACK 163 AUDIO
    TITLE "2:cjc156_2695"
    INDEX 01 05:53:22
  TRACK 164 AUDIO
    TITLE "3:cjc156_2696"
    INDEX 01 05:54:69
  TRACK 165 AUDIO
    TITLE "2:cjc156_2697"
    INDEX 01 05:56:44
  TRACK 166 AUDIO
    TITLE "3:cjc156_2698"
    INDEX 01 05:58:26
  TRACK 167 AUDIO
    TITLE "2:cjc156_2699"
    INDEX 01 06:00:09
  TRACK 168 AUDIO
    TITLE "3:cjc156_2700"
    INDEX 01 06:02:41
  TRACK 169 AUDIO
    TITLE "2:cjc156_2701"
    INDEX 01 06:05:06
  TRACK 170 AUDIO
    TITLE "3:cjc156_2702"
    INDEX 01 06:08:28
  TRACK 171 AUDIO
    TITLE "2:cjc156_2703"
    INDEX 01 06:11:56
  TRACK 172 AUDIO
    TITLE "3:cjc156_2704"
    INDEX 01 06:14:60
  TRACK 173 AUDIO
    TITLE "2:cjc156_2705"
    INDEX 01 06:18:01
  TRACK 174 AUDIO
    TITLE "3:cjc156_2706"
    INDEX 01 06:20:19
  TRACK 175 AUDIO
    TITLE "2:cjc156_2707"
    INDEX 01 06:22:44
  TRACK 176 AUDIO
    TITLE "3:cjc156_2708"
    INDEX 01 06:24:31
  TRACK 177 AUDIO
    TITLE "2:cjc156_2709"
    INDEX 01 06:26:28
  TRACK 178 AUDIO
    TITLE "3:cjc156_2710"
    INDEX 01 06:29:26
  TRACK 179 AUDIO
    TITLE "2:cjc156_2711"
    INDEX 01 06:32:30
  TRACK 180 AUDIO
    TITLE "3:cjc156_2712"
    INDEX 01 06:33:53
  TRACK 181 AUDIO
    TITLE "2:cjc156_2713"
    INDEX 01 06:35:11
  TRACK 182 AUDIO
    TITLE "3:cjc156_2714"
    INDEX 01 06:36:50
  TRACK 183 AUDIO
    TITLE "2:cjc156_2715"
    INDEX 01 06:38:17
  TRACK 184 AUDIO
    TITLE "3:cjc156_2716"
    INDEX 01 06:39:46
  TRACK 185 AUDIO
    TITLE "2:cjc156_2717"
    INDEX 01 06:41:14
  TRACK 186 AUDIO
    TITLE "3:cjc156_2718"
    INDEX 01 06:43:15
  TRACK 187 AUDIO
    TITLE "2:cjc156_2719"
    INDEX 01 06:45:23
  TRACK 188 AUDIO
    TITLE "3:cjc156_2720"
    INDEX 01 06:46:52
  TRACK 189 AUDIO
    TITLE "2:cjc156_2721"
    INDEX 01 06:48:14
  TRACK 190 AUDIO
    TITLE "3:cjc156_2722"
    INDEX 01 06:50:13
  TRACK 191 AUDIO
    TITLE "2:cjc156_2723"
    INDEX 01 06:52:12
  TRACK 192 AUDIO
    TITLE "3:cjc156_2724"
    INDEX 01 06:54:26
  TRACK 193 AUDIO
    TITLE "2:cjc156_2725"
    INDEX 01 06:56:48
  TRACK 194 AUDIO
    TITLE "3:cjc156_2726"
    INDEX 01 06:58:00
  TRACK 195 AUDIO
    TITLE "2:cjc156_2727"
    INDEX 01 06:59:39
  TRACK 196 AUDIO
    TITLE "3:cjc156_2728"
    INDEX 01 07:01:34
  TRACK 197 AUDIO
    TITLE "2:cjc156_2729"
    INDEX 01 07:03:37
  TRACK 198 AUDIO
    TITLE "3:cjc156_2730"
    INDEX 01 07:05:38
  TRACK 199 AUDIO
    TITLE "2:cjc156_2731"
    INDEX 01 07:07:39
  TRACK 200 AUDIO
    TITLE "3:cjc156_2732"
    INDEX 01 07:09:24
  TRACK 201 AUDIO
    TITLE "2:cjc156_2733"
    INDEX 01 07:11:17
  TRACK 202 AUDIO
    TITLE "3:cjc156_2734"
    INDEX 01 07:13:65
  TRACK 203 AUDIO
    TITLE "2:cjc156_2735"
    INDEX 01 07:16:39
  TRACK 204 AUDIO
    TITLE "3:cjc156_2736"
    INDEX 01 07:20:33
  TRACK 205 AUDIO
    TITLE "2:cjc156_2737"
    INDEX 01 07:24:31
  TRACK 206 AUDIO
    TITLE "3:cjc156_2738"
    INDEX 01 07:25:33
  TRACK 207 AUDIO
    TITLE "2:cjc156_2739"
    INDEX 01 07:26:44
  TRACK 208 AUDIO
    TITLE "3:cjc156_2740"
    INDEX 01 07:27:71
  TRACK 209 AUDIO
    TITLE "2:cjc156_2741"
    INDEX 01 07:29:30
  TRACK 210 AUDIO
    TITLE "3:cjc156_2742"
    INDEX 01 07:31:06
  TRACK 211 AUDIO
    TITLE "2:cjc156_2743"
    INDEX 01 07:32:62
  TRACK 212 AUDIO
    TITLE "3:cjc156_2744"
    INDEX 01 07:35:11
  TRACK 213 AUDIO
    TITLE "2:cjc156_2745"
    INDEX 01 07:37:44
  TRACK 214 AUDIO
    TITLE "3:cjc156_2746"
    INDEX 01 07:39:29
  TRACK 215 AUDIO
    TITLE "2:cjc156_2747"
    INDEX 01 07:41:26
  TRACK 216 AUDIO
    TITLE "3:cjc156_2748"
    INDEX 01 07:44:00
  TRACK 217 AUDIO
    TITLE "2:cjc156_2749"
    INDEX 01 07:46:64
  TRACK 218 AUDIO
    TITLE "3:cjc156_2750"
    INDEX 01 07:51:14
  TRACK 219 AUDIO
    TITLE "2:cjc156_2751"
    INDEX 01 07:55:49
  TRACK 220 AUDIO
    TITLE "3:cjc156_2752"
    INDEX 01 07:57:52
  TRACK 221 AUDIO
    TITLE "2:cjc156_2753"
    INDEX 01 07:59:65
  TRACK 222 AUDIO
    TITLE "3:cjc156_2754"
    INDEX 01 08:01:62
  TRACK 223 AUDIO
    TITLE "2:cjc156_2755"
    INDEX 01 08:03:66
  TRACK 224 AUDIO
    TITLE "3:cjc156_2756"
    INDEX 01 08:06:10
  TRACK 225 AUDIO
    TITLE "2:cjc156_2757"
    INDEX 01 08:08:38
  TRACK 226 AUDIO
    TITLE "3:cjc156_2758"
    INDEX 01 08:10:02
  TRACK 227 AUDIO
    TITLE "2:cjc156_2759"
    INDEX 01 08:11:46
  TRACK 228 AUDIO
    TITLE "3:cjc156_2760"
    INDEX 01 08:13:53
  TRACK 229 AUDIO
    TITLE "2:cjc156_2761"
    INDEX 01 08:15:66
  TRACK 230 AUDIO
    TITLE "3:cjc156_2762"
    INDEX 01 08:17:51
  TRACK 231 AUDIO
    TITLE "2:cjc156_2763"
    INDEX 01 08:19:46
  TRACK 232 AUDIO
    TITLE "3:cjc156_2764"
    INDEX 01 08:21:47
  TRACK 233 AUDIO
    TITLE "2:cjc156_2765"
    INDEX 01 08:23:53
  TRACK 234 AUDIO
    TITLE "3:cjc156_2766"
    INDEX 01 08:26:38
  TRACK 235 AUDIO
    TITLE "2:cjc156_2767"
    INDEX 01 08:29:29
  TRACK 236 AUDIO
    TITLE "3:cjc156_2768"
    INDEX 01 08:31:02
  TRACK 237 AUDIO
    TITLE "2:cjc156_2769"
    INDEX 01 08:32:66
  TRACK 238 AUDIO
    TITLE "3:cjc156_2770"
    INDEX 01 08:34:55
  TRACK 239 AUDIO
    TITLE "2:cjc156_2771"
    INDEX 01 08:36:54
  TRACK 240 AUDIO
    TITLE "3:cjc156_2772"
    INDEX 01 08:38:57
  TRACK 241 AUDIO
    TITLE "2:cjc156_2773"
    INDEX 01 08:40:72
  TRACK 242 AUDIO
    TITLE "3:cjc156_2774"
    INDEX 01 08:42:21
  TRACK 243 AUDIO
    TITLE "2:cjc156_2775"
    INDEX 01 08:43:54
  TRACK 244 AUDIO
    TITLE "3:cjc156_2776"
    INDEX 01 08:44:73
  TRACK 245 AUDIO
    TITLE "2:cjc156_2777"
    INDEX 01 08:46:21
  TRACK 246 AUDIO
    TITLE "3:cjc156_2778"
    INDEX 01 08:47:70
  TRACK 247 AUDIO
    TITLE "2:cjc156_2779"
    INDEX 01 08:49:41
  TRACK 248 AUDIO
    TITLE "3:cjc156_2780"
    INDEX 01 08:51:40
  TRACK 249 AUDIO
    TITLE "2:cjc156_2781"
    INDEX 01 08:53:31
  TRACK 250 AUDIO
    TITLE "3:cjc156_2782"
    INDEX 01 08:55:65
  TRACK 251 AUDIO
    TITLE "2:cjc156_2783"
    INDEX 01 08:58:24
  TRACK 252 AUDIO
    TITLE "3:cjc156_2784"
    INDEX 01 09:00:31
  TRACK 253 AUDIO
    TITLE "2:cjc156_2785"
    INDEX 01 09:02:50
  TRACK 254 AUDIO
    TITLE "3:cjc156_2786"
    INDEX 01 09:04:07
  TRACK 255 AUDIO
    TITLE "2:cjc156_2787"
    INDEX 01 09:05:56
  TRACK 256 AUDIO
    TITLE "3:cjc156_2788"
    INDEX 01 09:08:03
  TRACK 257 AUDIO
    TITLE "0:"
    INDEX 01 09:10:37
